<svg xmlns="http://www.w3.org/2000/svg" viewBox="0 0 780 250" font-family="-apple-system, BlinkMacSystemFont, 'Segoe UI', Helvetica, Arial, sans-serif">
  <defs>
    <marker id="arrow" viewBox="0 0 10 10" refX="9" refY="5" markerWidth="7" markerHeight="7" orient="auto-start-reverse">
      <path d="M0,0 L10,5 L0,10 z" fill="#666"/>
    </marker>
  </defs>

  <!-- boxes -->
  <g>
    <rect x="20"  y="80" width="200" height="80" rx="8" fill="#f4f4f4" stroke="#888" stroke-width="2"/>
    <rect x="290" y="80" width="200" height="80" rx="8" fill="#f4f4f4" stroke="#888" stroke-width="2"/>
    <rect x="560" y="80" width="200" height="80" rx="8" fill="#f4f4f4" stroke="#888" stroke-width="2"/>
  </g>

  <!-- step numbers -->
  <g fill="#999" font-size="13" font-weight="700">
    <text x="34" y="100">1</text>
    <text x="304" y="100">2</text>
    <text x="574" y="100">3</text>
  </g>

  <!-- titles -->
  <g fill="#222" font-size="24" font-weight="700" text-anchor="middle">
    <text x="120" y="122">File</text>
    <text x="390" y="122">Dispatch</text>
    <text x="660" y="122">Finish</text>
  </g>

  <!-- skill labels -->
  <g fill="#555" font-size="13" font-family="'SFMono-Regular', Menlo, Consolas, monospace" text-anchor="middle">
    <text x="120" y="146">/new-issue</text>
    <text x="390" y="146">/dispatch-issue</text>
    <text x="660" y="146">/finish-issue</text>
  </g>

  <!-- captions -->
  <g fill="#777" font-size="12.5" text-anchor="middle">
    <text x="120" y="190">record the task</text>
    <text x="120" y="207">as a GitHub issue</text>
    <text x="390" y="190">agent writes code,</text>
    <text x="390" y="207">opens PR, self-reviews</text>
    <text x="660" y="190">verify, merge,</text>
    <text x="660" y="207">update memory</text>
  </g>

  <!-- arrows between stages -->
  <line x1="224" y1="120" x2="286" y2="120" stroke="#666" stroke-width="2" marker-end="url(#arrow)"/>
  <line x1="494" y1="120" x2="556" y2="120" stroke="#666" stroke-width="2" marker-end="url(#arrow)"/>

  <!-- review loop over Dispatch -->
  <path d="M340 80 C340 40, 440 40, 440 78" fill="none" stroke="#666" stroke-width="2" marker-end="url(#arrow)"/>
  <text x="390" y="38" fill="#777" font-size="12.5" text-anchor="middle">review loop (up to 5x)</text>
</svg>
